<svg xmlns="http://www.w3.org/2000/svg" height="24" viewBox="0 0 24 24" width="24">
    <path d="M 0 0 h 24 v 24 H 0 V 0 z" fill="none"/>
    <path fill="rgb(255, 255, 255)" d="M 11 18 c 0 1.1 -0.9 2 -2 2 s -2 -0.9 -2 -2 s 0.9 -2 2 -2 s 2 0.9 2 2 z m -2 -8 c -1.1 0 -2 0.9 -2 2 s 0.9 2 2 2 s 2 -0.9 2 -2 s -0.9 -2 -2 -2 z m 0 -6 c -1.1 0 -2 0.9 -2 2 s 0.9 2 2 2 s 2 -0.9 2 -2 s -0.9 -2 -2 -2 z m 6 4 c 1.1 0 2 -0.9 2 -2 s -0.9 -2 -2 -2 s -2 0.9 -2 2 s 0.9 2 2 2 z m 0 2 c -1.1 0 -2 0.9 -2 2 s 0.9 2 2 2 s 2 -0.9 2 -2 s -0.9 -2 -2 -2 z m 0 6 c -1.1 0 -2 0.9 -2 2 s 0.9 2 2 2 s 2 -0.9 2 -2 s -0.9 -2 -2 -2 z"/>
</svg>